<?xml version="1.0" encoding="utf-8"?>
<!-- Generator: Adobe Illustrator 27.9.0, SVG Export Plug-In . SVG Version: 6.00 Build 0)  -->
<svg version="1.1" xmlns="http://www.w3.org/2000/svg" xmlns:xlink="http://www.w3.org/1999/xlink" x="0px" y="0px"
	 viewBox="0 0 224.6 83" style="enable-background:new 0 0 224.6 83;" xml:space="preserve">
<style type="text/css">
	.st0{fill:#EC7D21;}
</style>
<g id="Ebene_1">
	<g>
		<path d="M23.8,21.4c-0.2,1.9-0.9,3.4-2.1,4.4c-1.2,1.1-2.8,1.6-4.9,1.6c-1.4,0-2.7-0.3-3.7-1s-1.9-1.6-2.5-2.9s-0.9-2.7-0.9-4.3
			v-1.7c0-1.7,0.3-3.2,0.9-4.4c0.6-1.3,1.4-2.3,2.6-3s2.4-1,3.8-1c2,0,3.5,0.5,4.7,1.6c1.2,1.1,1.9,2.6,2.1,4.5h-3.1
			c-0.1-1.3-0.5-2.2-1.1-2.8C19,12,18.1,11.7,17,11.7c-1.3,0-2.4,0.5-3.1,1.5s-1.1,2.4-1.1,4.3v1.6c0,1.9,0.3,3.4,1,4.4
			c0.7,1,1.7,1.5,3,1.5c1.2,0,2.1-0.3,2.7-0.8c0.6-0.5,1-1.5,1.2-2.7H23.8z"/>
		<path d="M32.7,20.4h-3.4v6.8h-3.1V9.5h6.2c2,0,3.6,0.5,4.7,1.4c1.1,0.9,1.7,2.3,1.7,4c0,1.2-0.3,2.2-0.9,3
			c-0.6,0.8-1.4,1.4-2.4,1.9l4,7.4v0.2h-3.3L32.7,20.4z M29.3,17.9h3.2c1,0,1.9-0.3,2.4-0.8c0.6-0.5,0.9-1.2,0.9-2.1
			c0-0.9-0.3-1.7-0.8-2.2S33.6,12,32.5,12h-3.3C29.3,12,29.3,17.9,29.3,17.9z"/>
		<path d="M51.3,23.1h-6.9L43,27.2h-3.2l6.7-17.8h2.8L56,27.2h-3.2L51.3,23.1z M45.3,20.6h5.1l-2.6-7.4L45.3,20.6z"/>
		<path d="M70.9,21.4c-0.2,1.9-0.9,3.4-2.1,4.4c-1.2,1.1-2.8,1.6-4.9,1.6c-1.4,0-2.7-0.3-3.7-1s-1.9-1.6-2.5-2.9s-0.9-2.7-0.9-4.3
			v-1.7c0-1.7,0.3-3.2,0.9-4.4s1.4-2.3,2.6-3s2.4-1,3.8-1c2,0,3.5,0.5,4.7,1.6s1.9,2.6,2.1,4.5h-3.1c-0.1-1.3-0.5-2.2-1.1-2.8
			c-0.6-0.6-1.5-0.8-2.6-0.8c-1.3,0-2.4,0.5-3.1,1.5c-0.7,1-1.1,2.4-1.1,4.3v1.6c0,1.9,0.3,3.4,1,4.4s1.7,1.5,3,1.5
			c1.2,0,2.1-0.3,2.7-0.8c0.6-0.5,1-1.5,1.2-2.7H70.9z"/>
		<path d="M78.4,19.6l-2,2.1v5.5h-3.1V9.5h3.1v8.3l1.7-2.1l5.2-6.2H87l-6.6,7.9l7,9.9h-3.7L78.4,19.6z"/>
		<path d="M106.6,12H101v15.3H98V12h-5.5V9.5h14.1L106.6,12L106.6,12z"/>
		<path d="M122.6,27.2h-3.1v-7.9h-7.9v7.9h-3.1V9.5h3.1v7.4h7.9V9.5h3.1V27.2z"/>
		<path d="M136.2,19.3h-7.3v5.5h8.5v2.5h-11.6V9.5h11.5V12h-8.4v4.9h7.3L136.2,19.3L136.2,19.3z"/>
	</g>
	<g>
		<path class="st0" d="M77.6,53.6c1.1-1.7,1.7-3.8,1.7-6.4c0-3.6-1.2-6.4-3.6-8.3c-2.4-2-5.8-3-10.2-3H51.6v37.3h7.7V59.6h6.1
			l7,13.6h8.3v-0.4l-8.1-15.2C74.9,56.7,76.5,55.3,77.6,53.6z M70,51.9c-1.1,1-2.6,1.5-4.5,1.5h-6.2h0V42.2h6.2
			c2.1,0,3.6,0.5,4.6,1.5s1.5,2.4,1.5,4.1C71.6,49.6,71.1,50.9,70,51.9z"/>
		<path class="st0" d="M95.1,35.9L81.2,73.3h8.2l2.6-7.7h13.5l2.6,7.7h8.2l-14-37.3H95.1z M94,59.3l4.6-13.9l4.7,13.9H94z"/>
		<polygon class="st0" points="141.5,60.5 126.5,35.9 118.9,35.9 118.9,73.3 126.5,73.3 126.5,48.7 141.5,73.3 149.2,73.3 
			149.2,35.9 141.5,35.9 		"/>
		<path class="st0" d="M164.1,44.6c1.4-2,3.4-2.9,6-2.9c2.1,0,3.7,0.5,4.8,1.5c1.2,1,1.9,2.6,2.3,4.7h7.5c-0.5-4-1.9-7.1-4.4-9.2
			c-2.5-2.1-6-3.2-10.4-3.2c-3.2,0-6,0.7-8.3,2.2c-2.4,1.4-4.2,3.5-5.4,6.2c-1.3,2.7-1.9,5.9-1.9,9.7v2.5c0,3.6,0.7,6.8,2,9.4
			c1.3,2.7,3.2,4.7,5.6,6.1s5.3,2.1,8.5,2.1c3.1,0,5.9-0.5,8.4-1.4c2.5-0.9,4.5-2.2,5.9-3.9h0V53.6H170v5.7h7v6.4
			c-1.2,1.2-3.3,1.8-6.2,1.8c-2.9,0-5.1-1-6.5-3c-1.5-2-2.2-5-2.2-8.9v-2.4C162,49.5,162.7,46.5,164.1,44.6z"/>
		<polygon class="st0" points="197.8,67.1 197.8,57.1 212.5,57.1 212.5,51.1 197.8,51.1 197.8,42.2 215.1,42.2 215.1,35.9 
			190.1,35.9 190.1,73.3 215.1,73.3 215.1,67.1 		"/>
		<path class="st0" d="M28.6,35.4C18,35.4,9.4,44,9.4,54.6c0,10.6,8.6,19.2,19.2,19.2s19.2-8.6,19.2-19.2
			C47.8,44,39.2,35.4,28.6,35.4z M38.7,54.5c0,5.6-4.5,10.1-10.1,10.1c-1.4,0-2.7-0.3-3.9-0.8l-7.2,5.1l4.9-6.4
			c-2.4-1.9-4-4.8-4-8.1c0-5.6,4.5-10.1,10.1-10.1c1.1,0,2.2,0.2,3.3,0.5l7.4-5.6l-5.2,6.6C36.7,47.7,38.7,50.8,38.7,54.5z"/>
	</g>
</g>
<g id="Ebene_2_00000036938209339315195880000009612164627029948337_">
</g>
<g id="Ebene_3">
</g>
</svg>
