<?xml version="1.0" encoding="utf-8"?>
<!-- Generator: Adobe Illustrator 27.9.0, SVG Export Plug-In . SVG Version: 6.00 Build 0)  -->
<svg version="1.1" id="Ebene_1" xmlns="http://www.w3.org/2000/svg" xmlns:xlink="http://www.w3.org/1999/xlink" x="0px" y="0px"
	 viewBox="0 0 1000 1000" style="enable-background:new 0 0 1000 1000;" xml:space="preserve">
<style type="text/css">
	.st0{fill:#EC7D21;}
</style>
<path class="st0" d="M500,42C247,42,42,247.1,42,500c0,253,205,458,458,458s458-205,458-458C958,247.1,753,42,500,42z M740.2,497.2
	c0,133.8-108.4,242.2-242.2,242.2c-33,0-64.4-6.6-93.1-18.6L233.6,842.9l117.9-153.3c-58-44.2-95.6-113.9-95.6-192.4
	c0-133.7,108.5-242.2,242.2-242.2c27.3,0,53.4,4.7,77.8,13l175.7-132.8L626.2,292C694.6,334.8,740.2,410.6,740.2,497.2z"/>
</svg>
